<?xml version="1.0" encoding="utf-8"?>
<!-- Generator: Adobe Illustrator 15.1.0, SVG Export Plug-In . SVG Version: 6.00 Build 0)  -->
<svg version="1.2" baseProfile="tiny" id="Layer_1" xmlns="http://www.w3.org/2000/svg" xmlns:xlink="http://www.w3.org/1999/xlink" x="0px" y="0px" width="50px" height="50px" viewBox="0 0 50 50" overflow="inherit" xml:space="preserve">
    <polygon points="45,1 5,1 5,41 20.093,41 25.532,49.05 30.972,41 45,41 "/>
    <g>
        <svg version="1.2" baseProfile="tiny" xmlns="http://www.w3.org/2000/svg" width="30" height="30" x="10" y="5" viewBox="0 0 50 50" overflow="inherit"><path
            fill="white" d="M11.462 1c-1.363 0-2.462 1.127-2.462 2.526v42.946c0 1.262 1.231 2.527 2.462 2.527 1.23 0 2.461-1.266 2.461-2.527v-25.894c.841-.367 1.659-.632 2.462-.632 4.923 0 12.185 6.317 17.231 6.317 2.151 0 5.231-.871 7.384-2.527v-17.684c-2.442 1.879-4.916 3.79-7.384 3.79-4.923 0-12.291-6.316-17.231-6.316-.83 0-1.64.152-2.462.316v-.316c0-1.399-1.099-2.526-2.461-2.526z"/></svg>
          </g>
        </svg>
