<?xml version="1.0" encoding="utf-8"?>
<!-- Generator: Adobe Illustrator 15.1.0, SVG Export Plug-In . SVG Version: 6.00 Build 0)  -->
<svg version="1.2" baseProfile="tiny" id="Layer_1" xmlns="http://www.w3.org/2000/svg" xmlns:xlink="http://www.w3.org/1999/xlink" x="0px" y="0px" width="50px" height="50px" viewBox="0 0 50 50" overflow="inherit" xml:space="preserve">
    <polygon points="45,1 5,1 5,41 20.093,41 25.532,49.05 30.972,41 45,41 "/>
    <g>
        <svg version="1.2" baseProfile="tiny" xmlns="http://www.w3.org/2000/svg" width="30" height="30" x="10" y="5" viewBox="0 0 50 50" overflow="inherit"><path
            fill="white" d="M42.215 13h-5.674l5.709-5.474-5.648-5.526h-7.994l5.727 5.473-5.871 5.527h-6.789l5.838-5.474-5.767-5.526h-8.131l5.727 5.473-5.879 5.527h-5.754l5.841-5.474-5.778-5.526h-5.772v46h46v-46h-5.642l5.642 5.504-5.785 5.496zm-.215 29h-34v-6h34v6zm0-11h-34v-6h34v6z"/></svg>
          </g>
        </svg>
